<svg width="15" height="15" viewBox="0 0 15 15" fill="none" xmlns="http://www.w3.org/2000/svg">
<path d="M5.496 2.352C7.788 2.352 9.3 3.192 9.3 4.524C9.3 5.868 7.788 6.696 5.496 6.696C3.192 6.696 1.692 5.868 1.692 4.524C1.692 3.192 3.192 2.352 5.496 2.352ZM5.496 3.168C3.84 3.168 2.748 3.696 2.748 4.524C2.748 5.364 3.84 5.88 5.496 5.88C7.152 5.88 8.244 5.364 8.244 4.524C8.244 3.696 7.152 3.168 5.496 3.168ZM0.6 7.512H10.404V8.328H0.6V7.512ZM1.788 11.88H9.396V12.696H1.788V11.88ZM1.788 9.66H2.784V12.288H1.788V9.66ZM4.02 7.86H5.004V10.572H4.02V7.86ZM6.912 7.86H7.908V10.584H6.912V7.86Z" fill="black"/>
<path d="M12.828 4.5H13.92V4.776H12.828V4.5ZM12.828 5.644H13.92V5.92H12.828V5.644ZM12.164 3.972C12.688 3.972 13.064 4.464 13.064 5.232C13.064 6.004 12.688 6.496 12.164 6.496C11.636 6.496 11.264 6.004 11.264 5.232C11.264 4.464 11.636 3.972 12.164 3.972ZM12.164 4.272C11.816 4.272 11.576 4.648 11.576 5.232C11.576 5.82 11.816 6.204 12.164 6.204C12.512 6.204 12.752 5.82 12.752 5.232C12.752 4.648 12.512 4.272 12.164 4.272ZM13.848 3.692H14.176V7.316H13.848V3.692ZM12.1 9.372H12.372V9.548C12.372 10.196 11.972 10.724 11.368 10.932L11.204 10.672C11.74 10.492 12.1 10.052 12.1 9.548V9.372ZM12.156 9.372H12.432V9.548C12.432 10.008 12.78 10.436 13.312 10.604L13.148 10.864C12.552 10.668 12.156 10.156 12.156 9.548V9.372ZM11.3 9.184H13.228V9.452H11.3V9.184ZM12.1 8.72H12.432V9.312H12.1V8.72ZM13.672 8.692H14.004V11.376H13.672V8.692ZM13.9 9.82H14.54V10.096H13.9V9.82ZM11.752 11.96H14.168V12.232H11.752V11.96ZM11.752 11.144H12.084V12.116H11.752V11.144Z" fill="black"/>
</svg>
